<svg width="512" height="512" viewBox="0 0 512 512" fill="none" xmlns="http://www.w3.org/2000/svg">
<defs>
  <filter id="shadow" x="-20%" y="-20%" width="140%" height="140%">
    <feDropShadow dx="0" dy="8" stdDeviation="16" flood-color="#000" flood-opacity="0.15"/>
  </filter>
</defs>
<rect width="512" height="512" rx="64" ry="64" fill="#06A7C7" filter="url(#shadow)"/>
<path d="M284.492 67C206.27 67.0002 96 67 96 67C98.3225 87.5402 100.11 98.8586 112.11 114.193C126.307 132.333 138.332 142.831 163.664 142.831H284.492C307.763 142.831 315.299 163.169 313.893 182.36C312.519 201.127 302.068 217.048 280.464 217.048H199.509C189.468 217.048 175.819 230.543 170.113 245.53C162.035 266.75 167.577 284.846 183.399 303.769C183.399 303.769 288.6 409.419 308.657 429.213C328.715 449.007 355.535 448.882 380.752 436.07C408.37 422.037 414.992 401.403 417 365.483H349.336L273.022 288.51C356.104 288.51 392.925 237.539 392.925 170.434C392.925 111.434 362.713 66.9998 284.492 67Z" fill="#06A7C7" stroke="white" stroke-width="20" stroke-linecap="round"/>
<path d="M278.914 294.139L201 217M350 366H245.981" stroke="white" stroke-width="20" stroke-linecap="round"/>
</svg>
